{
  "accessors": [
    {
      "bufferView": 2,
      "componentType": 5126,
      "count": 47706,
      "max": [
        206.8535614013672,
        74.83763122558594,
        484.01611328125
      ],
      "min": [
        -206.8535614013672,
        -37.47239685058594,
        -3.545673370361328
      ],
      "type": "VEC3"
    },
    {
      "bufferView": 2,
      "byteOffset": 572472,
      "componentType": 5126,
      "count": 47706,
      "max": [
        1.0,
        1.0,
        0.999998927116394
      ],
      "min": [
        -1.0,
        -1.0,
        -1.0
      ],
      "type": "VEC3"
    },
    {
      "bufferView": 3,
      "componentType": 5126,
      "count": 47706,
      "max": [
        1.0,
        1.0,
        0.9999723434448242,
        1.0
      ],
      "min": [
        -1.0,
        -1.0,
        -0.9999764561653137,
        -1.0
      ],
      "type": "VEC4"
    },
    {
      "bufferView": 1,
      "componentType": 5126,
      "count": 47706,
      "max": [
        0.9976158738136292,
        0.9967942237854004
      ],
      "min": [
        0.005138718523085117,
        0.002506200224161148
      ],
      "type": "VEC2"
    },
    {
      "bufferView": 1,
      "byteOffset": 381648,
      "componentType": 5126,
      "count": 47706,
      "max": [
        136.46485900878906,
        177.01541137695313
      ],
      "min": [
        -203.43406677246094,
        -97.99713134765625
      ],
      "type": "VEC2"
    },
    {
      "bufferView": 1,
      "byteOffset": 763296,
      "componentType": 5126,
      "count": 47706,
      "max": [
        136.46485900878906,
        177.01541137695313
      ],
      "min": [
        -203.43406677246094,
        -97.99713134765625
      ],
      "type": "VEC2"
    },
    {
      "bufferView": 0,
      "componentType": 5125,
      "count": 216108,
      "type": "SCALAR"
    }
  ],
  "asset": {
    "extras": {
      "author": "Korpusenko (https://sketchfab.com/Korpusenko)",
      "license": "CC-BY-4.0 (http://creativecommons.org/licenses/by/4.0/)",
      "source": "https://sketchfab.com/3d-models/mira-up-375d61812555491396d48f6cd64568e2",
      "title": "Mira up"
    },
    "generator": "Sketchfab-12.67.0",
    "version": "2.0"
  },
  "bufferViews": [
    {
      "buffer": 0,
      "byteLength": 864432,
      "name": "floatBufferViews",
      "target": 34963
    },
    {
      "buffer": 0,
      "byteLength": 1144944,
      "byteOffset": 864432,
      "byteStride": 8,
      "name": "floatBufferViews",
      "target": 34962
    },
    {
      "buffer": 0,
      "byteLength": 1144944,
      "byteOffset": 2009376,
      "byteStride": 12,
      "name": "floatBufferViews",
      "target": 34962
    },
    {
      "buffer": 0,
      "byteLength": 763296,
      "byteOffset": 3154320,
      "byteStride": 16,
      "name": "floatBufferViews",
      "target": 34962
    }
  ],
  "buffers": [
    {
      "byteLength": 3917616,
      "uri": "scene.bin"
    }
  ],
  "images": [
    {
      "uri": "textures/06_-_Defaultasd_baseColor.png"
    },
    {
      "uri": "textures/06_-_Defaultasd_metallicRoughness.png"
    },
    {
      "uri": "textures/06_-_Defaultasd_emissive.png"
    },
    {
      "uri": "textures/06_-_Defaultasd_normal.png"
    }
  ],
  "materials": [
    {
      "alphaMode": "BLEND",
      "doubleSided": true,
      "emissiveFactor": [
        1.0,
        1.0,
        1.0
      ],
      "emissiveTexture": {
        "index": 2
      },
      "name": "06_-_Defaultasd",
      "normalTexture": {
        "index": 3
      },
      "occlusionTexture": {
        "index": 1
      },
      "pbrMetallicRoughness": {
        "baseColorTexture": {
          "index": 0
        },
        "metallicRoughnessTexture": {
          "index": 1
        },
        "roughnessFactor": 0.8529342915686239
      }
    }
  ],
  "meshes": [
    {
      "name": "Mira001_06 - Defaultasd_0",
      "primitives": [
        {
          "attributes": {
            "NORMAL": 1,
            "POSITION": 0,
            "TANGENT": 2,
            "TEXCOORD_0": 3,
            "TEXCOORD_1": 4,
            "TEXCOORD_2": 5
          },
          "indices": 6,
          "material": 0,
          "mode": 4
        }
      ]
    }
  ],
  "nodes": [
    {
      "children": [
        1
      ],
      "matrix": [
        1.0,
        0.0,
        0.0,
        0.0,
        0.0,
        2.220446049250313e-16,
        -1.0,
        0.0,
        0.0,
        1.0,
        2.220446049250313e-16,
        0.0,
        0.0,
        0.0,
        0.0,
        1.0
      ],
      "name": "Sketchfab_model"
    },
    {
      "children": [
        2
      ],
      "matrix": [
        1.0,
        0.0,
        0.0,
        0.0,
        0.0,
        0.0,
        1.0,
        0.0,
        0.0,
        -1.0,
        0.0,
        0.0,
        0.0,
        0.0,
        0.0,
        1.0
      ],
      "name": "f31e11077de94f20a8c2f74b64476053.fbx"
    },
    {
      "children": [
        3
      ],
      "name": "RootNode"
    },
    {
      "children": [
        4
      ],
      "matrix": [
        1.0,
        0.0,
        0.0,
        0.0,
        0.0,
        2.220446049250313e-16,
        -1.0,
        0.0,
        0.0,
        1.0,
        2.220446049250313e-16,
        0.0,
        0.0,
        0.0,
        0.0,
        1.0
      ],
      "name": "Mira001"
    },
    {
      "mesh": 0,
      "name": "Mira001_06 - Defaultasd_0"
    }
  ],
  "samplers": [
    {
      "magFilter": 9729,
      "minFilter": 9987,
      "wrapS": 10497,
      "wrapT": 10497
    }
  ],
  "scene": 0,
  "scenes": [
    {
      "name": "Sketchfab_Scene",
      "nodes": [
        0
      ]
    }
  ],
  "textures": [
    {
      "sampler": 0,
      "source": 0
    },
    {
      "sampler": 0,
      "source": 1
    },
    {
      "sampler": 0,
      "source": 2
    },
    {
      "sampler": 0,
      "source": 3
    }
  ]
}
